# xmcd
#
# Track frame offsets:
#  150
#  22365
#  69619
#  92809
#  109263
#  136433
#  154921
#  180899
#  202946
#  231288
#  244935
#  264829
#  276849
#  306422
#  324000
#
# Disc length: 4638 seconds
#
# Revision: 0
# Processed by: cddbd v1.5.1PL2 Copyright (c) Steve Scherf et al.
# Submitted via: Collectorz.com_Music_Collector 6.9
#
DISCID=d2121c0f
DTITLE=Bruce Springsteen - Cool Rockin' Daddy In The Usa - Born In The Usa Tour Compilation - Disc 1
DYEAR=1985
DGENRE=
TTITLE0=Atlantic City
TTITLE1=Backstreets
TTITLE2=Badlands
TTITLE3=Be True
TTITLE4=Because The Night
TTITLE5=Bobby Jean
TTITLE6=Born In The Usa
TTITLE7=Born To Run
TTITLE8=Cadillac Ranch
TTITLE9=Candy's Room
TTITLE10=Intro To Can't Help Falling In Love
TTITLE11=Can't Help Falling In Love
TTITLE12=Cover Me
TTITLE13=Dancing In The Dark
TTITLE14=Darkness On The Edge Of Town
EXTD=
EXTT0=
EXTT1=
EXTT2=
EXTT3=
EXTT4=
EXTT5=
EXTT6=
EXTT7=
EXTT8=
EXTT9=
EXTT10=
EXTT11=
EXTT12=
EXTT13=
EXTT14=
PLAYORDER=
